# xmcd CD database file
#
# Track frame offsets:
#	150
#	15602
#	31225
#	44730
#	58135
#	72772
#	88340
#	103335
#	119162
#	134205
#	141057
#	156640
#	172377
#	189787
#	204830
#
# Disc length: 2980 seconds
#
# Revision: 0
# Processed by: cddbd v1.4PL0 Copyright (c) Steve Scherf et al.
# Submitted via: CDex 1.50beta9
#
DISCID=ee0ba20f
DTITLE=Billie Holiday - Great Jazz
DYEAR=1900
DGENRE=Jazz
TTITLE0=Lover Man
TTITLE1=Don't Explain
TTITLE2=My Man
TTITLE3=Summertime
TTITLE4=Strange Fruit
TTITLE5=Yesterdays
TTITLE6=Fine And Mellow
TTITLE7=I Cover The Water Front
TTITLE8=Lover Come Back To Me
TTITLE9=Them There Eyes
TTITLE10=I'm A Fool To Want You
TTITLE11=For Heavens Sake
TTITLE12=You Don't Know What Love Is
TTITLE13=You've Changed
TTITLE14=Glad To Be Unhappy
EXTD=
EXTT0=
EXTT1=
EXTT2=
EXTT3=
EXTT4=
EXTT5=
EXTT6=
EXTT7=
EXTT8=
EXTT9=
EXTT10=
EXTT11=
EXTT12=
EXTT13=
EXTT14=
PLAYORDER=
